<?xml version="1.0" standalone="no"?>
<!DOCTYPE svg PUBLIC "-//W3C//DTD SVG 20010904//EN"
 "http://www.w3.org/TR/2001/REC-SVG-20010904/DTD/svg10.dtd">
<svg version="1.0" xmlns="http://www.w3.org/2000/svg"
 width="800.000000pt" height="264.000000pt" viewBox="0 0 800.000000 264.000000"
 preserveAspectRatio="xMidYMid meet">

<g transform="translate(0.000000,264.000000) scale(0.100000,-0.100000)"
fill="#000000" stroke="none">
<path d="M825 2618 c-6 -20 -571 -1760 -579 -1785 l-7 -23 215 0 c196 0 215 2
220 18 8 29 97 336 102 355 5 16 27 17 283 17 l277 0 55 -192 55 -193 372 -3
372 -2 0 377 c1 397 6 486 35 547 25 52 83 88 150 94 74 6 133 -28 167 -95 23
-48 23 -50 26 -485 l3 -438 174 0 174 0 3 433 c3 389 5 436 21 472 37 82 99
119 187 113 68 -5 111 -32 143 -91 22 -41 22 -49 25 -479 l3 -438 174 0 175 0
0 493 c0 523 -4 578 -50 666 -31 62 -94 119 -168 154 -57 27 -81 32 -164 35
-79 4 -107 0 -160 -17 -79 -27 -146 -76 -201 -146 l-42 -55 -21 43 c-31 61
-89 116 -153 146 -50 23 -68 26 -166 26 -91 -1 -118 -4 -156 -22 -59 -27 -115
-76 -151 -132 l-28 -45 0 87 0 87 -175 0 -175 0 -2 -590 -3 -590 -281 832
-282 833 -221 3 c-172 2 -222 0 -226 -10z m330 -756 c48 -178 85 -326 82 -328
-2 -3 -85 -3 -184 -2 l-179 3 82 320 c46 176 86 331 90 345 6 24 7 24 15 5 4
-11 47 -166 94 -343z"/>
<path d="M5741 2150 c-86 -31 -159 -80 -218 -145 -132 -145 -197 -387 -173
-646 18 -190 79 -336 182 -439 174 -175 449 -184 601 -21 26 28 50 51 52 51 3
0 5 -31 5 -70 l0 -70 165 0 165 0 0 658 c0 361 4 650 9 642 5 -8 99 -289 211
-623 221 -665 218 -652 167 -729 -29 -43 -72 -57 -174 -57 l-83 -1 0 -48 c0
-27 -2 -51 -4 -53 -3 -2 -80 3 -173 12 -537 54 -981 73 -1678 73 -1248 1
-2322 -89 -3645 -305 -390 -63 -1075 -191 -1086 -202 -2 -1 -17 -40 -34 -86
l-30 -83 27 7 c168 42 767 158 1168 225 1865 315 3644 428 5115 324 124 -9
250 -19 280 -22 l55 -7 3 -69 3 -69 162 6 c171 7 260 23 307 57 28 20 32 20
132 5 194 -29 403 -66 567 -101 127 -26 167 -31 173 -22 4 7 4 16 0 19 -18 17
-565 129 -749 154 -29 4 -53 8 -53 10 0 1 11 22 24 46 14 24 34 69 46 99 18
46 440 1451 440 1465 0 3 -80 5 -178 5 l-178 0 -99 -432 c-54 -238 -100 -440
-103 -448 -3 -8 -56 186 -117 430 l-111 445 -362 3 -362 2 0 -82 0 -82 -28 45
c-33 51 -77 91 -136 121 -60 32 -210 36 -285 8z m265 -299 c52 -24 109 -91
129 -152 38 -112 36 -324 -3 -427 -36 -93 -107 -160 -189 -177 -82 -17 -183
57 -223 163 -67 178 -39 432 58 536 33 35 117 76 157 76 17 0 48 -9 71 -19z"/>
<path d="M3630 2133 c0 -5 80 -304 177 -665 l178 -658 165 0 166 0 73 318
c113 492 133 574 137 569 2 -2 47 -192 99 -423 52 -230 97 -429 100 -441 5
-23 8 -23 169 -23 l163 0 98 363 c54 199 135 498 180 665 l82 302 -180 -2
-180 -3 -91 -402 c-50 -222 -93 -403 -96 -403 -3 0 -39 143 -79 318 -40 174
-82 356 -93 405 l-21 87 -156 0 -156 0 -95 -410 c-51 -225 -96 -407 -98 -405
-3 3 -46 186 -96 407 l-91 403 -178 3 c-97 1 -177 -1 -177 -5z"/>
</g>
</svg>
