<?xml version="1.0" encoding="UTF-8"?>
<svg version="1.1" xmlns="http://www.w3.org/2000/svg" width="200" height="200">
<path d="M0 0 C66 0 132 0 200 0 C200 66 200 132 200 200 C134 200 68 200 0 200 C0 134 0 68 0 0 Z " fill="#FEFEFE" transform="translate(0,0)"/>
<path d="M0 0 C2.92810762 1.81651121 5.43591638 3.87183276 7 7 C7.08675538 9.69893181 7.11557897 12.37169231 7.09765625 15.0703125 C7.0962413 15.86654022 7.09482635 16.66276794 7.09336853 17.48312378 C7.08776345 20.0304538 7.07521014 22.57769647 7.0625 25.125 C7.05748565 26.85025915 7.05292263 28.57551967 7.04882812 30.30078125 C7.03779237 34.53388791 7.02052436 38.76692914 7 43 C8.48282471 42.36118896 8.48282471 42.36118896 9.99560547 41.70947266 C23.09791957 36.18318955 34.09531196 34.71511946 47.96484375 39.61328125 C60.52386168 45.35131389 68.91584526 55.31062206 74 68 C77.37887119 80.4108538 75.81021595 94.6722742 70 106 C67.94033553 109.31698934 65.69347707 112.17798389 63 115 C62.47792969 115.55042969 61.95585937 116.10085937 61.41796875 116.66796875 C51.31438598 126.23072714 39.82987317 128.39046035 26.515625 128.22265625 C20.46732385 128.0234682 14.78408525 127.09571252 9.8671875 123.39453125 C8.12134384 121.80053678 8.12134384 121.80053678 6 122 C4.64613064 123.65002828 3.31321858 125.3174387 2 127 C-0.53539651 128.26769825 -2.11938285 128.0653574 -4.9375 127.875 C-5.81277344 127.83117187 -6.68804687 127.78734375 -7.58984375 127.7421875 C-10 127 -10 127 -11.62538147 125.1496582 C-13.68567881 120.42890675 -13.4257274 115.96148329 -13.40405273 110.86328125 C-13.41091599 109.7391684 -13.41777924 108.61505554 -13.42485046 107.45687866 C-13.44314854 103.74195722 -13.43927683 100.02745683 -13.43359375 96.3125 C-13.43815375 93.73087425 -13.44345877 91.14924971 -13.44947815 88.56762695 C-13.45841495 83.15733324 -13.4562129 77.74720124 -13.44604492 72.33691406 C-13.43455976 66.08776981 -13.44864794 59.83905452 -13.4754414 53.58996677 C-13.50027996 47.57085935 -13.50277503 41.5519725 -13.49632454 35.5328064 C-13.49617101 32.97471401 -13.50224157 30.41661349 -13.51461601 27.85855103 C-13.52947108 24.28428086 -13.51888837 20.71095896 -13.50170898 17.13671875 C-13.51137695 16.07786469 -13.52104492 15.01901062 -13.53100586 13.92807007 C-13.48610752 9.47350213 -13.44825253 6.76178336 -11.15614319 2.86645508 C-7.66041253 -0.15960751 -4.49666957 -0.52901995 0 0 Z " fill="#F6AA27" transform="translate(74,33)"/>
<path d="M0 0 C7.32593724 4.06630674 11.12175442 10.11526326 13.73828125 17.96484375 C14.73781941 26.89514369 12.45333585 33.85347535 7.55078125 41.27734375 C1.77602765 46.79544163 -3.10666096 49.27410464 -11.19921875 49.65234375 C-18.98951401 49.3494813 -24.54796927 46.88930242 -29.9140625 41.21875 C-35.72605192 33.65474058 -36.12816355 25.21044379 -35.26171875 15.96484375 C-34.34584157 12.92923022 -33.0730213 10.55241882 -31.26171875 7.96484375 C-30.42640625 6.63453125 -30.42640625 6.63453125 -29.57421875 5.27734375 C-21.44950373 -2.84737127 -10.58626109 -4.75614629 0 0 Z " fill="#FEFDF9" transform="translate(116.26171875,92.03515625)"/>
<path d="M0 0 C1.32 0.99 2.64 1.98 4 3 C3.51244075 3.55768444 3.0248815 4.11536888 2.52254772 4.68995285 C0.73969725 7.39493778 0.62900099 8.75364361 0.63923645 11.96075439 C0.63511246 12.95912323 0.63098846 13.95749207 0.6267395 14.9861145 C0.63752533 16.07512054 0.64831116 17.16412659 0.65942383 18.28613281 C0.65898575 19.43763824 0.65854767 20.58914368 0.65809631 21.77554321 C0.66018775 25.5849091 0.68353637 29.39383591 0.70703125 33.203125 C0.71262592 35.84299479 0.71689663 38.48286769 0.71989441 41.1227417 C0.72921568 47.36297769 0.75383045 53.60305586 0.78394288 59.84322238 C0.81748443 66.94835717 0.83397226 74.05349953 0.84902918 81.15869379 C0.88038001 95.77254391 0.93314205 110.38626975 1 125 C0.34 125 -0.32 125 -1 125 C-2.20728439 122.58543123 -2.12578672 121.07332443 -2.12698364 118.37586975 C-2.12980347 117.40141403 -2.13262329 116.42695831 -2.13552856 115.42297363 C-2.13350433 114.35019165 -2.1314801 113.27740967 -2.12939453 112.17211914 C-2.13114685 111.04523178 -2.13289917 109.91834442 -2.13470459 108.75730896 C-2.13912096 105.01657592 -2.13618565 101.27588981 -2.1328125 97.53515625 C-2.13348565 94.94445283 -2.13445576 92.35374947 -2.13571167 89.76304626 C-2.13718839 84.32648053 -2.13512993 78.88993257 -2.13037109 73.45336914 C-2.12493139 67.16633994 -2.1266894 60.87934319 -2.1321975 54.59231478 C-2.1372811 48.54816111 -2.1367444 42.50402333 -2.13381577 36.45986748 C-2.13314721 33.88617384 -2.13397244 31.31247938 -2.13629532 28.7387867 C-2.13882658 25.14492709 -2.13497433 21.5511303 -2.12939453 17.95727539 C-2.13141876 16.88651764 -2.13344299 15.81575989 -2.13552856 14.71255493 C-2.13270874 13.73527939 -2.12988892 12.75800385 -2.12698364 11.75111389 C-2.12660662 10.90105302 -2.12622959 10.05099215 -2.12584114 9.17517185 C-2 7 -2 7 -1 4 C-0.65772583 2.66893378 -0.32248257 1.33599921 0 0 Z " fill="#FEEFC1" transform="translate(61,32)"/>
<path d="M0 0 C2.92810762 1.81651121 5.43591638 3.87183276 7 7 C7.08675538 9.69893181 7.11557897 12.37169231 7.09765625 15.0703125 C7.0962413 15.86654022 7.09482635 16.66276794 7.09336853 17.48312378 C7.08776345 20.0304538 7.07521014 22.57769647 7.0625 25.125 C7.05748565 26.85025915 7.05292263 28.57551967 7.04882812 30.30078125 C7.03779237 34.53388791 7.02052436 38.76692914 7 43 C7.66 43.33 8.32 43.66 9 44 C7.68 44 6.36 44 5 44 C4.67 31.46 4.34 18.92 4 6 C2.68 5.34 1.36 4.68 0 4 C-0.33 4.99 -0.66 5.98 -1 7 C-1.33 6.01 -1.66 5.02 -2 4 C-2.66 4 -3.32 4 -4 4 C-4 3.34 -4 2.68 -4 2 C-6.31 2.66 -8.62 3.32 -11 4 C-8.08097402 -0.37853896 -5.03847063 -0.59276125 0 0 Z " fill="#EFB85A" transform="translate(74,33)"/>
<path d="M0 0 C0.63164063 0.433125 1.26328125 0.86625 1.9140625 1.3125 C9.53662188 6.05737846 16.08442639 7.56978497 25 6 C28.96282511 4.38517197 32.47459157 2.41742293 36 0 C35.65470304 2.69331632 35.31495502 3.74426729 33.171875 5.484375 C25.65259696 9.41380417 17.99733704 10.69181636 9.6875 8.34765625 C7.8125 7.5625 7.8125 7.5625 5 6 C4.34 5.67 3.68 5.34 3 5 C3 4.34 3 3.68 3 3 C2.01 2.67 1.02 2.34 0 2 C0 1.34 0 0.68 0 0 Z " fill="#ECB24A" transform="translate(87,134)"/>
<path d="M0 0 C3 1 3 1 5 4 C5.10230862 6.549036 5.0923307 8.97189779 4.9765625 11.51171875 C4.95153656 12.23994339 4.92651062 12.96816803 4.90072632 13.71846008 C4.81862297 16.04195381 4.72199821 18.36458506 4.625 20.6875 C4.56675041 22.26363676 4.50944734 23.83980881 4.453125 25.41601562 C4.31305901 29.27783886 4.15996809 33.13895203 4 37 C4.61415771 36.78561279 5.22831543 36.57122559 5.86108398 36.3503418 C6.66876221 36.07359619 7.47644043 35.79685059 8.30859375 35.51171875 C9.10837646 35.23545654 9.90815918 34.95919434 10.73217773 34.67456055 C13.23856642 33.92903875 15.39685841 33.74808307 18 34 C15.75848118 36.24151882 13.9932888 36.96301325 11.0625 38.125 C9.74958984 38.65480469 9.74958984 38.65480469 8.41015625 39.1953125 C6 40 6 40 3 40 C2.98018066 38.93040039 2.96036133 37.86080078 2.93994141 36.75878906 C2.8637902 32.78524488 2.77508758 28.81206234 2.68261719 24.83886719 C2.64436673 23.12018989 2.60950697 21.40143362 2.578125 19.68261719 C2.53238872 17.2099996 2.47440916 14.73792387 2.4140625 12.265625 C2.40251129 11.49881409 2.39096008 10.73200317 2.37905884 9.94195557 C2.27497731 6.16811648 2.10555954 3.20636084 0 0 Z " fill="#FEFBE1" transform="translate(78,36)"/>
<path d="M0 0 C0.33 0.99 0.66 1.98 1 3 C-2.57186637 9.92578836 -7.93186201 15.24005799 -14 20 C-15 17 -15 17 -13.8125 14.5 C-12.02979091 12.04109091 -10.60048701 10.54403916 -8 9 C-7.01 9 -6.02 9 -5 9 C-4.87625 8.360625 -4.7525 7.72125 -4.625 7.0625 C-4.41875 6.381875 -4.2125 5.70125 -4 5 C-3.34 4.67 -2.68 4.34 -2 4 C-0.86649466 1.98330173 -0.86649466 1.98330173 0 0 Z " fill="#F2AD36" transform="translate(144,134)"/>
<path d="M0 0 C9.51535074 0.7929459 17.10773782 5.4795196 24 12 C25.2578125 14.21875 25.2578125 14.21875 26 16 C24.33333333 15 22.66666667 14 21 13 C20.13375 12.484375 19.2675 11.96875 18.375 11.4375 C16.5555777 10.33627071 14.76955082 9.17970055 13 8 C13.33 7.34 13.66 6.68 14 6 C9.37892907 4.38262517 4.7539867 3.14751403 0 2 C0 1.34 0 0.68 0 0 Z " fill="#EDB14A" transform="translate(113,71)"/>
<path d="M0 0 C0.33 0 0.66 0 1 0 C2.19531779 4.74271253 2.21958051 9.39048662 2.25 14.25 C2.270625 15.05824219 2.29125 15.86648437 2.3125 16.69921875 C2.35050944 22.63819451 1.19340945 27.49166404 -1 33 C-1.33 33 -1.66 33 -2 33 C-1.85704109 31.60386935 -1.71048442 30.20810692 -1.5625 28.8125 C-1.48128906 28.03519531 -1.40007812 27.25789063 -1.31640625 26.45703125 C-1 24 -1 24 -0.46875 21.8125 C0.23203762 17.60777425 0.10373898 13.44145956 0.0625 9.1875 C0.05798828 8.30384766 0.05347656 7.42019531 0.04882812 6.50976562 C0.03709866 4.33981441 0.01916495 2.16989828 0 0 Z " fill="#EBAE4A" transform="translate(147,101)"/>
<path d="M0 0 C-1.61180408 1.95066193 -2.43014778 2.92886446 -4.99291992 3.2487793 C-6.10050659 3.16237183 -6.10050659 3.16237183 -7.23046875 3.07421875 C-8.43413086 2.99204102 -8.43413086 2.99204102 -9.66210938 2.90820312 C-10.49548828 2.83537109 -11.32886719 2.76253906 -12.1875 2.6875 C-13.03248047 2.62626953 -13.87746094 2.56503906 -14.74804688 2.50195312 C-16.83312095 2.34881209 -18.91675276 2.17625843 -21 2 C-21.33 1.34 -21.66 0.68 -22 0 C-19.08365878 -0.19502282 -16.16720455 -0.38129328 -13.25 -0.5625 C-12.0125 -0.64661133 -12.0125 -0.64661133 -10.75 -0.73242188 C-9.95078125 -0.78076172 -9.1515625 -0.82910156 -8.328125 -0.87890625 C-7.5949707 -0.9260376 -6.86181641 -0.97316895 -6.10644531 -1.02172852 C-3.91642774 -0.99913793 -2.09512813 -0.61487456 0 0 Z " fill="#FEF4D2" transform="translate(118,161)"/>
<path d="M0 0 C1.65 0.66 3.3 1.32 5 2 C4.443125 2.2475 3.88625 2.495 3.3125 2.75 C0.86711132 3.93642336 0.86711132 3.93642336 -1.1875 6.125 C-5.10257555 8.73505037 -8.4200375 8.49978124 -13 8 C-14.33994313 7.69431829 -15.67615909 7.36923454 -17 7 C-17.33 5.68 -17.66 4.36 -18 3 C-17.01 3.495 -17.01 3.495 -16 4 C-16 4.66 -16 5.32 -16 6 C-8.97094369 6.71730949 -8.97094369 6.71730949 -2.9375 3.5625 C-2.298125 2.716875 -1.65875 1.87125 -1 1 C-0.67 0.67 -0.34 0.34 0 0 Z " fill="#FDEEC4" transform="translate(80,154)"/>
<path d="M0 0 C0.33 0.99 0.66 1.98 1 3 C-4.34651963 6.36066948 -8.42157089 8.27899829 -14.8125 8.125 C-16.27623047 8.09792969 -16.27623047 8.09792969 -17.76953125 8.0703125 C-18.50558594 8.04710937 -19.24164063 8.02390625 -20 8 C-20 7.67 -20 7.34 -20 7 C-19.39414063 6.99742187 -18.78828125 6.99484375 -18.1640625 6.9921875 C-10.78934862 6.65181609 -6.00328122 4.17675098 0 0 Z " fill="#EDBA5B" transform="translate(122,134)"/>
<path d="M0 0 C0.72832031 -0.01224609 1.45664063 -0.02449219 2.20703125 -0.03710938 C4.09782978 -0.04235188 5.98815581 0.06516615 7.875 0.1875 C8.535 0.8475 9.195 1.5075 9.875 2.1875 C8.78960937 2.16429688 7.70421875 2.14109375 6.5859375 2.1171875 C5.14063193 2.0984173 3.69531885 2.08021844 2.25 2.0625 C1.18072266 2.03736328 1.18072266 2.03736328 0.08984375 2.01171875 C-4.3862164 1.97065398 -7.90449278 2.49663433 -12.125 4.1875 C-12.125 3.1975 -12.125 2.2075 -12.125 1.1875 C-8.15575579 -0.11133646 -4.12870441 0.00369294 0 0 Z " fill="#EAB34F" transform="translate(104.125,88.8125)"/>
<path d="M0 0 C0.33 0 0.66 0 1 0 C1.58179863 7.59570439 0.26889853 13.14115041 -3 20 C-3.66 18.68 -4.32 17.36 -5 16 C-4.52949219 15.46890625 -4.05898437 14.9378125 -3.57421875 14.390625 C-1.6598427 11.48343358 -1.29754261 9.18260923 -0.8125 5.75 C-0.65394531 4.67234375 -0.49539062 3.5946875 -0.33203125 2.484375 C-0.22246094 1.66453125 -0.11289063 0.8446875 0 0 Z " fill="#FCEABD" transform="translate(129,110)"/>
<path d="M0 0 C0.66 0.33 1.32 0.66 2 1 C0 3 -2 5 -4 7 C-4.33 7.99 -4.66 8.98 -5 10 C-7.0625 11.1875 -7.0625 11.1875 -9 12 C-7.18690951 6.71181939 -4.67111564 3.11407709 0 0 Z " fill="#FDEFC9" transform="translate(92,93)"/>
<path d="M0 0 C-2.24151882 2.24151882 -4.0067112 2.96301325 -6.9375 4.125 C-7.81277344 4.47820312 -8.68804687 4.83140625 -9.58984375 5.1953125 C-12 6 -12 6 -15 6 C-14.67 4.68 -14.34 3.36 -14 2 C-13.2575 2.04125 -12.515 2.0825 -11.75 2.125 C-9.03807548 2.1882621 -9.03807548 2.1882621 -7 1 C-4.54352551 -0.22823725 -2.7102225 -0.15056792 0 0 Z " fill="#FEF6CF" transform="translate(96,70)"/>
<path d="M0 0 C0.97983761 3.04838368 1.21704816 5.00418914 0 8 C-2.0625 10.25 -2.0625 10.25 -4 12 C-4.66 11.67 -5.32 11.34 -6 11 C-5.47599609 10.18595703 -5.47599609 10.18595703 -4.94140625 9.35546875 C-4.25884766 8.28232422 -4.25884766 8.28232422 -3.5625 7.1875 C-3.11003906 6.47980469 -2.65757812 5.77210938 -2.19140625 5.04296875 C-0.85913661 2.91865448 -0.85913661 2.91865448 0 0 Z " fill="#FEF0CD" transform="translate(145,134)"/>
<path d="M0 0 C0.33 0 0.66 0 1 0 C1.3690205 9.41002278 1.3690205 9.41002278 -1 14 C-1.33 14 -1.66 14 -2 14 C-1.03644647 4.58997722 -1.03644647 4.58997722 0 0 Z " fill="#EFAB39" transform="translate(147,120)"/>
<path d="M0 0 C3.09592835 3.5087188 4.74194623 6.49197399 6 11 C4.68 10.67 3.36 10.34 2 10 C2 8.02 2 6.04 2 4 C1.34 4 0.68 4 0 4 C0 2.68 0 1.36 0 0 Z " fill="#FDEFC8" transform="translate(123,98)"/>
<path d="M0 0 C1.32 0.33 2.64 0.66 4 1 C4.85856655 4.4342662 4.97591583 6.61682513 4 10 C3.32845067 8.71086513 2.66291141 7.41859796 2 6.125 C1.62875 5.40570313 1.2575 4.68640625 0.875 3.9453125 C0 2 0 2 0 0 Z " fill="#FEF8D7" transform="translate(143,91)"/>
<path d="M0 0 C0.33 1.98 0.66 3.96 1 6 C-1.95409701 4.62845496 -4.44008376 3.01136276 -7 1 C-4.50935112 0.31292445 -2.62113708 0 0 0 Z " fill="#F1B044" transform="translate(121,90)"/>
<path d="M0 0 C1 3 1 3 0.0390625 5.04296875 C-0.42757812 5.75066406 -0.89421875 6.45835937 -1.375 7.1875 C-1.83648437 7.90292969 -2.29796875 8.61835938 -2.7734375 9.35546875 C-3.17820313 9.89816406 -3.58296875 10.44085938 -4 11 C-4.33 11 -4.66 11 -5 11 C-5.1875 8.625 -5.1875 8.625 -5 6 C-4.01 5.34 -3.02 4.68 -2 4 C-0.80767387 1.94996045 -0.80767387 1.94996045 0 0 Z " fill="#EDB04B" transform="translate(144,134)"/>
<path d="M0 0 C1.10191901 4.40767604 0.58706842 5.8922935 -1 10 C-2.32 9.67 -3.64 9.34 -5 9 C-3.35 6.03 -1.7 3.06 0 0 Z " fill="#EBB44B" transform="translate(128,124)"/>
<path d="M0 0 C1.5 1 1.5 1 3 3 C3.27345479 5.71846235 3.13491285 8.25677199 3 11 C0.43383368 7.15075052 0.44902324 4.5650696 0 0 Z " fill="#FEF9DD" transform="translate(148,101)"/>
<path d="M0 0 C1.65 0 3.3 0 5 0 C4.649375 0.5775 4.29875 1.155 3.9375 1.75 C2.85082593 4.35801776 3.06934867 5.39417629 4 8 C0 3.375 0 3.375 0 0 Z " fill="#F0AD2E" transform="translate(121,92)"/>
<path d="M0 0 C2.72426311 2.35277269 3.8141763 4.62496331 5 8 C3.68 7.67 2.36 7.34 1 7 C0.67 4.69 0.34 2.38 0 0 Z " fill="#EAB249" transform="translate(140,88)"/>
</svg>
